<?xml version="1.0" encoding="utf-8"?>
<!-- Generator: Adobe Illustrator 18.1.1, SVG Export Plug-In . SVG Version: 6.00 Build 0)  -->
<!DOCTYPE svg PUBLIC "-//W3C//DTD SVG 1.1//EN" "http://www.w3.org/Graphics/SVG/1.1/DTD/svg11.dtd">
<svg version="1.1" id="Layer_1" xmlns="http://www.w3.org/2000/svg" xmlns:xlink="http://www.w3.org/1999/xlink" x="0px" y="0px"
	 viewBox="-71 5 145 40" enable-background="new -71 5 145 40" xml:space="preserve">
<g>
	<path d="M-66.1,40.1h16.9v4.5h-22.2V5.4h5.3V40.1z"/>
	<path d="M-9.2,25c0,2.9-0.5,5.6-1.4,8.1c-0.9,2.4-2.2,4.6-3.9,6.3c-1.7,1.8-3.7,3.1-6.1,4.1c-2.4,1-5,1.5-7.9,1.5
		c-2.9,0-5.5-0.5-7.9-1.5c-2.4-1-4.4-2.3-6.1-4.1c-1.7-1.8-3-3.9-3.9-6.3c-0.9-2.4-1.4-5.1-1.4-8.1c0-2.9,0.5-5.6,1.4-8.1
		c0.9-2.4,2.2-4.6,3.9-6.3c1.7-1.8,3.7-3.2,6.1-4.1c2.4-1,5-1.5,7.9-1.5c2.9,0,5.5,0.5,7.9,1.5c2.4,1,4.4,2.4,6.1,4.1
		c1.7,1.8,3,3.9,3.9,6.3C-9.7,19.4-9.2,22.1-9.2,25z M-14.6,25c0-2.4-0.3-4.6-1-6.5c-0.7-1.9-1.6-3.5-2.8-4.8
		c-1.2-1.3-2.7-2.3-4.4-3c-1.7-0.7-3.6-1.1-5.7-1.1c-2.1,0-4,0.4-5.7,1.1c-1.7,0.7-3.2,1.7-4.4,3c-1.2,1.3-2.1,2.9-2.8,4.8
		c-0.7,1.9-1,4.1-1,6.5s0.3,4.6,1,6.5c0.7,1.9,1.6,3.5,2.8,4.8c1.2,1.3,2.7,2.3,4.4,3c1.7,0.7,3.6,1.1,5.7,1.1c2.1,0,4-0.4,5.7-1.1
		c1.7-0.7,3.2-1.7,4.4-3c1.2-1.3,2.1-2.9,2.8-4.8C-15,29.6-14.6,27.4-14.6,25z"/>
	<path d="M15.5,40.7c1.1,0,2,0,2.9-0.2c0.9-0.1,1.7-0.3,2.5-0.5c0.8-0.2,1.5-0.4,2.2-0.7c0.7-0.3,1.4-0.6,2.1-1v-8.6h-6.1
		c-0.3,0-0.6-0.1-0.8-0.3C18.1,29.3,18,29,18,28.8v-3h12v15c-1,0.7-2,1.3-3.1,1.9c-1.1,0.5-2.2,1-3.4,1.3c-1.2,0.4-2.5,0.6-3.9,0.8
		c-1.4,0.2-2.9,0.3-4.5,0.3c-2.8,0-5.4-0.5-7.8-1.5c-2.4-1-4.4-2.3-6.1-4.1c-1.7-1.8-3-3.9-4-6.3c-1-2.5-1.4-5.2-1.4-8.1
		c0-3,0.5-5.7,1.4-8.2c0.9-2.5,2.3-4.6,4-6.3S5,7.4,7.5,6.4c2.5-1,5.2-1.4,8.3-1.4c1.5,0,3,0.1,4.3,0.3c1.3,0.2,2.6,0.6,3.7,1
		c1.1,0.4,2.2,0.9,3.2,1.6c1,0.6,1.9,1.3,2.7,2.1l-1.5,2.4c-0.3,0.5-0.7,0.7-1.2,0.7c-0.3,0-0.6-0.1-1-0.3c-0.5-0.3-1-0.6-1.5-0.9
		c-0.6-0.4-1.3-0.7-2.1-1.1c-0.8-0.3-1.8-0.6-2.9-0.9c-1.1-0.2-2.4-0.4-3.9-0.4c-2.2,0-4.2,0.4-6,1.1c-1.8,0.7-3.3,1.7-4.6,3.1
		c-1.3,1.3-2.2,3-2.9,4.9c-0.7,1.9-1,4-1,6.4c0,2.5,0.4,4.7,1.1,6.6c0.7,1.9,1.7,3.6,3,4.9c1.3,1.3,2.8,2.4,4.5,3.1
		C11.4,40.4,13.4,40.7,15.5,40.7z"/>
	<path d="M74.4,25c0,2.9-0.5,5.6-1.4,8.1c-0.9,2.4-2.2,4.6-3.9,6.3c-1.7,1.8-3.7,3.1-6.1,4.1c-2.4,1-5,1.5-7.9,1.5
		c-2.9,0-5.5-0.5-7.9-1.5c-2.4-1-4.4-2.3-6.1-4.1c-1.7-1.8-3-3.9-3.9-6.3c-0.9-2.4-1.4-5.1-1.4-8.1c0-2.9,0.5-5.6,1.4-8.1
		c0.9-2.4,2.2-4.6,3.9-6.3c1.7-1.8,3.7-3.2,6.1-4.1c2.4-1,5-1.5,7.9-1.5C58,5,60.6,5.5,63,6.5c2.4,1,4.4,2.4,6.1,4.1
		c1.7,1.8,3,3.9,3.9,6.3C74,19.4,74.4,22.1,74.4,25z M69,25c0-2.4-0.3-4.6-1-6.5c-0.7-1.9-1.6-3.5-2.8-4.8c-1.2-1.3-2.7-2.3-4.4-3
		c-1.7-0.7-3.6-1.1-5.7-1.1c-2.1,0-4,0.4-5.7,1.1c-1.7,0.7-3.2,1.7-4.4,3c-1.2,1.3-2.1,2.9-2.8,4.8c-0.7,1.9-1,4.1-1,6.5
		s0.3,4.6,1,6.5c0.7,1.9,1.6,3.5,2.8,4.8c1.2,1.3,2.7,2.3,4.4,3c1.7,0.7,3.6,1.1,5.7,1.1c2.1,0,4-0.4,5.7-1.1c1.7-0.7,3.2-1.7,4.4-3
		s2.1-2.9,2.8-4.8C68.7,29.6,69,27.4,69,25z"/>
</g>
</svg>
